# Blender 4.1.1
# www.blender.org
mtllib gym.mtl
o Plane.004
v -49.460602 48.616707 -80.939720
v -49.460602 48.616707 -80.939720
v -49.460602 48.616707 -80.939720
v -49.460594 48.616707 80.939720
v -49.460594 48.616707 80.939720
v -49.460594 48.616707 80.939720
v 49.460594 48.616707 -80.939720
v 49.460594 48.616707 -80.939720
v 49.460594 48.616707 -80.939720
v 49.460602 48.616707 80.939720
v 49.460602 48.616707 80.939720
v 49.460602 48.616707 80.939720
v 49.460602 16.102005 80.939720
v 49.460602 16.102005 80.939720
v 49.460602 16.102005 80.939720
v -49.460594 16.102005 80.939720
v -49.460594 16.102005 80.939720
v -49.460594 16.102005 80.939720
v -49.460602 16.102005 -80.939720
v -49.460602 16.102005 -80.939720
v -49.460602 16.102005 -80.939720
v 49.460594 16.102005 -80.939720
v 49.460594 16.102005 -80.939720
v 49.460594 16.102005 -80.939720
v 48.126328 -2.635318 78.756248
v 48.126328 -2.635318 78.756248
v 48.126328 -2.635318 78.756248
v 48.126328 -2.635318 78.756248
v -48.126328 -2.635318 -78.756248
v -48.126328 -2.635318 -78.756248
v -48.126328 -2.635318 -78.756248
v -48.126328 -2.635318 -78.756248
v -48.126320 -2.635318 78.756248
v -48.126320 -2.635318 78.756248
v -48.126320 -2.635318 78.756248
v -48.126320 -2.635318 78.756248
v 48.126320 -2.635318 -78.756248
v 48.126320 -2.635318 -78.756248
v 48.126320 -2.635318 -78.756248
v 48.126320 -2.635318 -78.756248
v 46.868702 -3.389285 -77.325768
v 46.868702 -3.389285 -77.325768
v 46.868702 -3.389285 -77.325768
v -46.868710 -3.389285 -77.325768
v -46.868710 -3.389285 -77.325768
v -46.868710 -3.389285 -77.325768
v -46.868702 -3.389285 77.325768
v -46.868702 -3.389285 77.325768
v -46.868702 -3.389285 77.325768
v 46.868710 -3.389285 77.325768
v 46.868710 -3.389285 77.325768
v 46.868710 -3.389285 77.325768
v -48.126328 -2.635318 -78.756248
v -48.126328 -2.635318 -78.756248
v -48.126328 -2.635318 -78.756248
v -48.126320 -2.635318 78.756248
v -48.126320 -2.635318 78.756248
v -48.126320 -2.635318 78.756248
v 48.126328 -2.635318 78.756248
v 48.126328 -2.635318 78.756248
v 48.126328 -2.635318 78.756248
v 48.126320 -2.635318 -78.756248
v 48.126320 -2.635318 -78.756248
v 48.126320 -2.635318 -78.756248
v -47.030849 -2.635319 77.510201
v -47.030849 -2.635319 77.510201
v -47.030849 -2.635319 77.510201
v -46.868702 -2.809326 77.325768
v -46.868702 -2.809326 77.325768
v -46.868702 -2.809326 77.325768
v -46.868702 -2.809326 77.325768
v 47.030849 -2.635319 -77.510201
v 47.030849 -2.635319 -77.510201
v 47.030849 -2.635319 -77.510201
v 46.868702 -2.809326 -77.325768
v 46.868702 -2.809326 -77.325768
v 46.868702 -2.809326 -77.325768
v 46.868702 -2.809326 -77.325768
v -46.868710 -2.809326 -77.325768
v -46.868710 -2.809326 -77.325768
v -46.868710 -2.809326 -77.325768
v -46.868710 -2.809326 -77.325768
v -47.030857 -2.635319 -77.510201
v -47.030857 -2.635319 -77.510201
v -47.030857 -2.635319 -77.510201
v 46.868710 -2.809326 77.325768
v 46.868710 -2.809326 77.325768
v 46.868710 -2.809326 77.325768
v 46.868710 -2.809326 77.325768
v 47.030857 -2.635319 77.510201
v 47.030857 -2.635319 77.510201
v 47.030857 -2.635319 77.510201
v 48.289085 16.102003 79.022598
v 48.289085 16.102003 79.022598
v 48.289085 16.102003 79.022598
v 48.126328 15.874950 78.756248
v 48.126328 15.874950 78.756248
v 48.126328 15.874950 78.756248
v 48.126328 15.874950 78.756248
v -48.289085 16.102003 -79.022598
v -48.289085 16.102003 -79.022598
v -48.289085 16.102003 -79.022598
v -48.126328 15.874950 -78.756248
v -48.126328 15.874950 -78.756248
v -48.126328 15.874950 -78.756248
v -48.126328 15.874950 -78.756248
v -48.126320 15.874950 78.756248
v -48.126320 15.874950 78.756248
v -48.126320 15.874950 78.756248
v -48.126320 15.874950 78.756248
v -48.289078 16.102003 79.022598
v -48.289078 16.102003 79.022598
v -48.289078 16.102003 79.022598
v 48.126320 15.874950 -78.756248
v 48.126320 15.874950 -78.756248
v 48.126320 15.874950 -78.756248
v 48.126320 15.874950 -78.756248
v 48.289078 16.102003 -79.022598
v 48.289078 16.102003 -79.022598
v 48.289078 16.102003 -79.022598
vn 1.0000 -0.0000 -0.0000
vn -1.0000 -0.0000 -0.0000
vn -0.0000 -1.0000 -0.0000
vn -0.0000 1.0000 -0.0000
vn -0.0000 -0.0000 -1.0000
vn -0.0000 -0.0000 1.0000
vn -0.0000 0.7274 -0.6862
vn 0.7316 0.6817 -0.0000
vn -0.7316 0.6817 -0.0000
vn -0.8128 0.5826 -0.0000
vn -0.0000 0.7274 0.6862
vn -0.0000 0.7610 0.6487
vn -0.0000 0.7610 -0.6487
vn 0.8128 0.5826 -0.0000
vt -0.000000 1.000000
vt 0.000000 0.500000
vt 0.100429 0.500000
vt 0.100429 1.000000
vt 0.100429 1.000000
vt 0.100429 0.500000
vt 0.200858 0.500000
vt 0.200858 1.000000
vt -0.000000 0.500000
vt 0.000000 0.000000
vt 0.305540 0.000000
vt 0.305540 0.500000
vt 0.611079 0.000000
vt 0.611079 0.500000
vt 0.607461 0.494079
vt 0.607461 0.005921
vt 0.200858 0.805540
vt 0.200858 0.500000
vt 0.301286 0.500000
vt 0.301286 0.805540
vt 0.200858 0.500000
vt 0.303748 0.789528
vt 0.303748 0.500000
vt 0.305540 0.500000
vt 0.305540 0.789528
vt 0.908377 0.486512
vt 0.908377 -0.000000
vt 0.965550 -0.000000
vt 0.965550 0.486512
vt 0.305540 0.000000
vt 0.309158 0.005921
vt 0.305540 0.500000
vt 0.309158 0.494079
vt 0.405969 0.797297
vt 0.405969 0.500000
vt 0.463142 0.500000
vt 0.463142 0.797297
vt 0.900608 0.973023
vt 0.900608 0.486512
vt 0.957781 0.486512
vt 0.957781 0.973023
vt 0.463142 0.797297
vt 0.520315 0.500000
vt 0.520315 0.797297
vt 0.957781 0.964187
vt 0.957781 0.486512
vt 0.959572 0.486512
vt 0.959572 0.964187
vt 0.904993 0.482663
vt 0.904993 0.003849
vt 0.908377 0.000000
vt 0.908377 0.486512
vt 0.614463 0.482663
vt 0.611079 0.486512
vt 0.614463 0.003849
vt 0.611080 0.000000
vt 0.303179 0.790530
vt 0.303179 0.500000
vt 0.303748 0.500501
vt 0.303748 0.790029
vt 0.611080 0.486512
vt 0.900608 0.486512
vt 0.900608 0.964187
vt 0.611079 0.964187
vt 0.959572 0.964187
vt 0.959572 0.486512
vt 0.961364 0.486512
vt 0.961364 0.964187
vt 0.961901 0.486512
vt 0.961901 0.965326
vt 0.961364 0.964756
vt 0.961364 0.487081
vt 0.962439 0.486512
vt 0.962439 0.965326
vt 0.961901 0.964756
vt 0.961901 0.487081
vt 0.966251 -0.000000
vt 0.966251 0.488157
vt 0.965550 0.487334
vt 0.965550 0.000823
vt 0.522530 0.500000
vt 0.522530 0.790530
vt 0.521960 0.790029
vt 0.521960 0.500501
vt 0.301286 0.789528
vt 0.301286 0.500000
vt 0.303078 0.500000
vt 0.303078 0.789528
vt 0.521960 0.500000
vt 0.521960 0.798303
vt 0.521137 0.797800
vt 0.521137 0.500503
vt 0.520315 0.798303
vt 0.520315 0.500000
vt 0.521137 0.500503
vt 0.966953 -0.000000
vt 0.966952 0.488157
vt 0.966251 0.487334
vt 0.966251 0.000823
vt 0.305540 0.805540
vt 0.305540 0.500000
vt 0.405968 0.500000
vt 0.405968 0.805540
s 0
usemtl Material.009
f 45/61/4 48/64/4 51/63/4 43/62/4
f 44/21/3 46/21/3 45/21/3
f 47/21/3 49/21/3 48/21/3
f 50/21/3 52/21/3 51/21/3
f 43/21/3 41/21/3 44/21/3 45/21/3
f 45/21/3 46/21/3 47/21/3 48/21/3
f 48/21/3 49/21/3 50/21/3 51/21/3
f 51/21/3 52/21/3 42/21/3 43/21/3
usemtl Material.010
f 24/13/4 119/16/4 93/15/4 14/14/4
f 39/21/3 62/21/3 59/21/3 27/21/3
f 30/26/1 105/29/1 109/28/1 36/27/1
f 32/21/3 54/21/3 64/21/3 40/21/3
f 20/30/4 100/31/4 119/16/4 24/13/4
f 14/14/4 93/15/4 112/33/4 18/32/4
f 18/32/4 112/33/4 100/31/4 20/30/4
f 35/34/5 110/37/5 97/36/5 25/35/5
f 28/38/2 98/41/2 116/40/2 38/39/2
f 33/21/3 56/21/3 53/21/3 29/21/3
f 37/42/6 117/44/6 104/43/6 31/36/6
f 120/77/10 115/80/10 99/79/10 95/78/10
f 101/89/12 103/92/12 114/91/12 118/90/12
f 94/93/13 96/91/13 107/95/13 111/94/13
f 113/96/14 108/99/14 106/98/14 102/97/14
f 26/21/3 60/21/3 58/21/3 34/21/3
f 13/21/3 15/21/3 14/21/3
f 19/21/3 21/21/3 20/21/3
f 25/21/3 28/21/3 27/21/3 26/21/3
f 29/21/3 32/21/3 31/21/3 30/21/3
f 33/21/3 36/21/3 35/21/3 34/21/3
f 37/21/3 40/21/3 39/21/3 38/21/3
f 53/21/3 55/21/3 54/21/3
f 56/21/3 58/21/3 57/21/3
f 59/21/3 61/21/3 60/21/3
f 62/21/3 64/21/3 63/21/3
f 93/21/3 95/21/3 94/21/3
f 96/21/3 99/21/3 98/21/3 97/21/3
f 100/21/3 102/21/3 101/21/3
f 103/21/3 106/21/3 105/21/3 104/21/3
f 107/21/3 110/21/3 109/21/3 108/21/3
f 111/21/3 113/21/3 112/21/3
f 114/21/3 117/21/3 116/21/3 115/21/3
f 118/21/3 120/21/3 119/21/3
f 32/21/3 29/21/3 53/21/3 54/21/3
f 33/21/3 34/21/3 58/21/3 56/21/3
f 25/21/3 26/21/3 34/21/3 35/21/3
f 31/21/3 32/21/3 40/21/3 37/21/3
f 38/21/3 39/21/3 27/21/3 28/21/3
f 36/21/3 33/21/3 29/21/3 30/21/3
f 64/21/3 62/21/3 39/21/3 40/21/3
f 26/21/3 27/21/3 59/21/3 60/21/3
f 60/21/3 61/21/3 57/21/3 58/21/3
f 54/21/3 55/21/3 63/21/3 64/21/3
f 62/21/3 63/21/3 61/21/3 59/21/3
f 56/21/3 57/21/3 55/21/3 53/21/3
f 107/21/3 108/21/3 113/21/3 111/21/3
f 112/21/3 113/21/3 102/21/3 100/21/3
f 101/21/3 102/21/3 106/21/3 103/21/3
f 105/21/3 106/21/3 108/21/3 109/21/3
f 114/21/3 115/21/3 120/21/3 118/21/3
f 119/21/3 120/21/3 95/21/3 93/21/3
f 94/21/3 95/21/3 99/21/3 96/21/3
f 98/21/3 99/21/3 115/21/3 116/21/3
f 100/21/3 101/21/3 118/21/3 119/21/3
f 117/21/3 114/21/3 103/21/3 104/21/3
f 93/21/3 94/21/3 111/21/3 112/21/3
f 110/21/3 107/21/3 96/21/3 97/21/3
f 109/21/3 110/21/3 35/21/3 36/21/3
f 28/21/3 25/21/3 97/21/3 98/21/3
f 37/21/3 38/21/3 116/21/3 117/21/3
f 104/21/3 105/21/3 30/21/3 31/21/3
usemtl Material.011
f 21/1/1 2/4/1 4/3/1 17/2/1
f 15/5/2 11/8/2 9/7/2 23/6/2
f 3/9/3 8/12/3 12/11/3 6/10/3
f 16/17/5 5/20/5 10/19/5 13/18/5
f 1/21/3 3/21/3 2/21/3
f 4/21/3 6/21/3 5/21/3
f 7/21/3 9/21/3 8/21/3
f 10/21/3 12/21/3 11/21/3
f 16/21/3 18/21/3 17/21/3
f 22/21/3 24/21/3 23/21/3
f 7/21/3 8/21/3 3/21/3 1/21/3
f 2/21/3 3/21/3 6/21/3 4/21/3
f 5/21/3 6/21/3 12/21/3 10/21/3
f 11/21/3 12/21/3 8/21/3 9/21/3
f 15/21/3 13/21/3 10/21/3 11/21/3
f 21/21/3 19/21/3 1/21/3 2/21/3
f 4/21/3 5/21/3 16/21/3 17/21/3
f 9/21/3 7/21/3 22/21/3 23/21/3
f 17/21/3 18/21/3 20/21/3 21/21/3
f 23/21/3 24/21/3 14/21/3 15/21/3
f 19/21/3 20/21/3 24/21/3 22/21/3
f 13/21/3 14/21/3 18/21/3 16/21/3
f 22/100/6 7/103/6 1/102/6 19/101/6
usemtl Material.013
f 41/22/6 77/25/6 81/24/6 44/23/6
f 52/45/2 89/48/2 76/47/2 42/46/2
f 91/49/4 61/52/4 63/51/4 72/50/4
f 65/53/4 57/54/4 61/52/4 91/49/4
f 84/55/4 55/56/4 57/54/4 65/53/4
f 92/57/7 87/60/7 71/59/7 67/58/7
f 72/50/4 63/51/4 55/56/4 84/55/4
f 46/65/1 82/68/1 69/67/1 47/66/1
f 66/69/8 68/72/8 79/71/8 83/70/8
f 73/73/9 75/76/9 86/75/9 90/74/9
f 85/81/11 80/84/11 78/83/11 74/82/11
f 49/85/5 70/88/5 88/87/5 50/86/5
f 41/21/3 43/21/3 42/21/3
f 65/21/3 67/21/3 66/21/3
f 68/21/3 71/21/3 70/21/3 69/21/3
f 72/21/3 74/21/3 73/21/3
f 75/21/3 78/21/3 77/21/3 76/21/3
f 79/21/3 82/21/3 81/21/3 80/21/3
f 83/21/3 85/21/3 84/21/3
f 86/21/3 89/21/3 88/21/3 87/21/3
f 90/21/3 92/21/3 91/21/3
f 86/21/3 87/21/3 92/21/3 90/21/3
f 91/21/3 92/21/3 67/21/3 65/21/3
f 66/21/3 67/21/3 71/21/3 68/21/3
f 70/21/3 71/21/3 87/21/3 88/21/3
f 79/21/3 80/21/3 85/21/3 83/21/3
f 84/21/3 85/21/3 74/21/3 72/21/3
f 73/21/3 74/21/3 78/21/3 75/21/3
f 77/21/3 78/21/3 80/21/3 81/21/3
f 72/21/3 73/21/3 90/21/3 91/21/3
f 89/21/3 86/21/3 75/21/3 76/21/3
f 65/21/3 66/21/3 83/21/3 84/21/3
f 82/21/3 79/21/3 68/21/3 69/21/3
f 81/21/3 82/21/3 46/21/3 44/21/3
f 49/21/3 47/21/3 69/21/3 70/21/3
f 52/21/3 50/21/3 88/21/3 89/21/3
f 41/21/3 42/21/3 76/21/3 77/21/3
