# Aspose.3D Wavefront OBJ Exporter
# Copyright 2004-2024 Aspose Pty Ltd.
# File created: 10/23/2024 04:31:54

g obj_58024946

#
# object obj_58024946
#

v -37.58178 61.500637 11.420831
v -37.58177 -61.500637 11.420831
v -37.58177 -61.500637 36.126564
v -37.58178 61.500637 36.126564
v 37.58178 -61.500637 11.420831
v 37.58177 61.500637 11.420831
v 37.58177 61.500637 36.126564
v 37.58178 -61.500637 36.126564
v 36.69162 -60.04394 11.420831
v 36.691612 60.04394 11.420831
v 36.567944 59.841564 -2.8163972
v 36.56795 -59.841564 -2.8163972
v 35.612366 58.754635 -3.389286
v -35.612373 58.754635 -3.389286
v -35.612373 58.754635 -2.948614
v 35.612366 58.754635 -2.948614
v -36.56795 59.841564 -2.8163972
v -36.567944 -59.841564 -2.8163972
v -36.567944 -59.841564 11.248307
v -36.56795 59.841564 11.248307
v -36.69162 60.04394 11.420831
v -36.691612 -60.04394 11.420831
v 36.56795 -59.841564 11.248307
v 36.567944 59.841564 11.248307
v 35.612373 -58.754635 -3.389286
v 35.612373 -58.754635 -2.948614
v 35.735577 -58.894775 -2.8163977
v 35.73557 58.894775 -2.8163977
v -35.73557 -58.894775 -2.8163977
v -35.735577 58.894775 -2.8163977
v -35.612366 -58.754635 -2.948614
v -35.612366 -58.754635 -3.389286
# 32 vertices

vn -1 -6.2026956E-08 0
vn 1 6.2026956E-08 0
vn 0 0 1
vn 0 0 -1
vn 0 -1 0
vn 0 0 0
vn 0 1 0
vn -1 -6.374662E-08 0
vn 1 6.374662E-08 0
vn 1 6.49259E-08 0
vn 5.728636E-07 3.710518E-14 -1
vn 5.728637E-07 3.6518125E-14 -1
vn 0 -5.036363E-07 -1
vn 0 -5.036362E-07 -1
vn -5.728636E-07 -3.710518E-14 -1
vn -5.728637E-07 -3.6518125E-14 -1
vn 0 -0.6862428 -0.7273725
vn 0 -0.6862429 -0.7273725
vn 0 5.036363E-07 -1
vn 0 5.036362E-07 -1
vn -1 -6.49259E-08 0
vn -0.731603 -4.7386955E-08 -0.6817309
vn -0.73160297 -4.7499977E-08 -0.681731
vn 0.731603 4.7386955E-08 -0.6817309
vn 0.73160297 4.7499977E-08 -0.681731
vn 0.8127574 5.1635904E-08 -0.58260244
vn 0.81275725 5.1810527E-08 -0.5826025
vn 0 0.6862428 -0.7273725
vn 0 0.6862429 -0.7273725
vn 0 0.64874536 -0.7610056
vn 0 -0.64874536 -0.7610056
vn -0.8127574 -5.1635904E-08 -0.58260244
vn -0.81275725 -5.1810527E-08 -0.5826025
# 33 vertex normals

s 1
f 1//1 2//1 3//1
f 1//1 3//1 4//1
f 5//2 6//2 7//2
f 5//2 7//2 8//2
f 4//3 3//3 8//3
f 4//3 8//3 7//3
f 6//4 5//4 9//4
f 6//4 9//4 10//4
f 2//5 5//5 8//5
f 2//5 8//5 3//5
f 11//6 12//6 12//6
f 11//6 12//6 11//6
f 13//7 14//7 15//7
f 13//7 15//7 16//7
f 17//8 18//8 19//8
f 17//8 19//8 20//8
f 17//6 11//6 11//6
f 17//6 11//6 17//6
f 1//4 6//4 10//4
f 1//4 10//4 21//4
f 5//4 2//4 22//4
f 5//4 22//4 9//4
f 2//4 1//4 21//4
f 2//4 21//4 22//4
f 18//5 12//5 23//5
f 18//5 23//5 19//5
f 12//9 11//9 24//9
f 12//9 24//9 23//9
f 18//6 17//6 17//6
f 18//6 17//6 18//6
f 11//7 17//7 20//7
f 11//7 20//7 24//7
f 25//10 13//10 16//10
f 25//10 16//10 26//10
f 27//11 28//11 11//11
f 27//12 11//12 12//12
f 29//13 27//13 12//13
f 29//14 12//14 18//14
f 30//15 29//15 18//15
f 30//16 18//16 17//16
f 27//17 29//17 31//17
f 27//18 31//18 26//18
f 28//19 30//19 17//19
f 28//20 17//20 11//20
f 14//4 13//4 25//4
f 14//4 25//4 32//4
f 14//21 32//21 31//21
f 14//21 31//21 15//21
f 29//22 30//22 15//22
f 29//23 15//23 31//23
f 28//24 27//24 26//24
f 28//25 26//25 16//25
f 10//26 9//26 23//26
f 10//27 23//27 24//27
f 30//28 28//28 16//28
f 30//29 16//29 15//29
f 32//5 25//5 26//5
f 32//5 26//5 31//5
f 21//30 10//30 24//30
f 21//30 24//30 20//30
f 9//31 22//31 19//31
f 9//31 19//31 23//31
f 22//32 21//32 20//32
f 22//33 20//33 19//33
f 12//6 18//6 18//6
f 12//6 18//6 12//6
f 4//6 4//6 4//6
f 3//6 3//6 3//6
f 7//6 7//6 7//6
f 8//6 8//6 8//6
f 5//6 5//6 5//6
f 2//6 2//6 2//6
f 1//6 1//6 1//6
f 6//6 6//6 6//6
f 12//6 12//6 12//6
f 12//6 12//6 12//6
f 17//6 17//6 17//6
f 17//6 17//6 17//6
f 18//6 18//6 18//6
f 18//6 18//6 18//6
f 11//6 11//6 11//6
f 11//6 11//6 11//6
f 13//6 13//6 13//6
f 14//6 14//6 14//6
f 32//6 32//6 32//6
f 25//6 25//6 25//6
f 17//6 17//6 17//6
f 18//6 18//6 18//6
f 12//6 12//6 12//6
f 11//6 11//6 11//6
f 29//6 29//6 29//6
f 31//6 31//6 31//6
f 31//6 31//6 31//6
f 28//6 28//6 28//6
f 16//6 16//6 16//6
f 16//6 16//6 16//6
f 15//6 15//6 15//6
f 15//6 15//6 15//6
f 30//6 30//6 30//6
f 26//6 26//6 26//6
f 26//6 26//6 26//6
f 27//6 27//6 27//6
f 9//6 9//6 9//6
f 23//6 23//6 23//6
f 23//6 23//6 23//6
f 21//6 21//6 21//6
f 20//6 20//6 20//6
f 20//6 20//6 20//6
f 19//6 19//6 19//6
f 19//6 19//6 19//6
f 22//6 22//6 22//6
f 24//6 24//6 24//6
f 24//6 24//6 24//6
f 10//6 10//6 10//6
f 7//6 4//6 4//6
f 7//6 4//6 7//6
f 4//6 3//6 3//6
f 4//6 3//6 4//6
f 3//6 8//6 8//6
f 3//6 8//6 3//6
f 8//6 7//6 7//6
f 8//6 7//6 8//6
f 5//6 8//6 8//6
f 5//6 8//6 5//6
f 1//6 4//6 4//6
f 1//6 4//6 1//6
f 3//6 2//6 2//6
f 3//6 2//6 3//6
f 7//6 6//6 6//6
f 7//6 6//6 7//6
f 2//6 1//6 1//6
f 2//6 1//6 2//6
f 6//6 5//6 5//6
f 6//6 5//6 6//6
f 1//6 6//6 6//6
f 1//6 6//6 1//6
f 5//6 2//6 2//6
f 5//6 2//6 5//6
f 17//6 17//6 17//6
f 17//6 17//6 17//6
f 18//6 18//6 18//6
f 18//6 18//6 18//6
f 12//6 18//6 18//6
f 12//6 18//6 12//6
f 17//6 11//6 11//6
f 17//6 11//6 17//6
f 11//6 12//6 12//6
f 11//6 12//6 11//6
f 18//6 17//6 17//6
f 18//6 17//6 18//6
f 11//6 11//6 11//6
f 11//6 11//6 11//6
f 12//6 12//6 12//6
f 12//6 12//6 12//6
f 13//6 14//6 14//6
f 13//6 14//6 13//6
f 14//6 32//6 32//6
f 14//6 32//6 14//6
f 32//6 25//6 25//6
f 32//6 25//6 32//6
f 25//6 13//6 13//6
f 25//6 13//6 25//6
f 12//6 18//6 18//6
f 12//6 18//6 12//6
f 17//6 11//6 11//6
f 17//6 11//6 17//6
f 11//6 12//6 12//6
f 11//6 12//6 11//6
f 18//6 17//6 17//6
f 18//6 17//6 18//6
f 26//6 27//6 27//6
f 26//6 27//6 26//6
f 27//6 29//6 29//6
f 27//6 29//6 27//6
f 29//6 31//6 31//6
f 29//6 31//6 29//6
f 31//6 26//6 26//6
f 31//6 26//6 31//6
f 15//6 30//6 30//6
f 15//6 30//6 15//6
f 30//6 28//6 28//6
f 30//6 28//6 30//6
f 28//6 16//6 16//6
f 28//6 16//6 28//6
f 16//6 15//6 15//6
f 16//6 15//6 16//6
f 28//6 27//6 27//6
f 28//6 27//6 28//6
f 26//6 16//6 16//6
f 26//6 16//6 26//6
f 29//6 30//6 30//6
f 29//6 30//6 29//6
f 15//6 31//6 31//6
f 15//6 31//6 15//6
f 15//6 14//6 14//6
f 15//6 14//6 15//6
f 32//6 31//6 31//6
f 32//6 31//6 32//6
f 25//6 26//6 26//6
f 25//6 26//6 25//6
f 13//6 16//6 16//6
f 13//6 16//6 13//6
f 19//6 22//6 22//6
f 19//6 22//6 19//6
f 22//6 21//6 21//6
f 22//6 21//6 22//6
f 21//6 20//6 20//6
f 21//6 20//6 21//6
f 20//6 19//6 19//6
f 20//6 19//6 20//6
f 24//6 10//6 10//6
f 24//6 10//6 24//6
f 10//6 9//6 9//6
f 10//6 9//6 10//6
f 9//6 23//6 23//6
f 9//6 23//6 9//6
f 23//6 24//6 24//6
f 23//6 24//6 23//6
f 21//6 10//6 10//6
f 21//6 10//6 21//6
f 24//6 20//6 20//6
f 24//6 20//6 24//6
f 9//6 22//6 22//6
f 9//6 22//6 9//6
f 19//6 23//6 23//6
f 19//6 23//6 19//6
f 19//6 18//6 18//6
f 19//6 18//6 19//6
f 12//6 23//6 23//6
f 12//6 23//6 12//6
f 11//6 24//6 24//6
f 11//6 24//6 11//6
f 20//6 17//6 17//6
f 20//6 17//6 20//6
f 6//7 1//7 4//7
f 6//7 4//7 7//7
#236 polygons

